<svg width="0" height="0" class="hidden">
  <symbol xmlns="http://www.w3.org/2000/svg" viewBox="0 0 455.731 455.731" id="twitter">
    <path fill="#50abf1" d="M0 0h455.731v455.731H0z"></path>
    <path d="M60.377 337.822c30.33 19.236 66.308 30.368 104.875 30.368 108.349 0 196.18-87.841 196.18-196.18 0-2.705-.057-5.39-.161-8.067 3.919-3.084 28.157-22.511 34.098-35 0 0-19.683 8.18-38.947 10.107-.038 0-.085.009-.123.009 0 0 .038-.019.104-.066 1.775-1.186 26.591-18.079 29.951-38.207 0 0-13.922 7.431-33.415 13.932a223.578 223.578 0 01-10.088 3.103c-12.565-13.41-30.425-21.78-50.25-21.78-38.027 0-68.841 30.805-68.841 68.803a68.67 68.67 0 001.784 15.592c-5.314-.218-86.237-4.755-141.289-71.423 0 0-32.902 44.917 19.607 91.105 0 0-15.962-.636-29.733-8.864 0 0-5.058 54.416 54.407 68.329 0 0-11.701 4.432-30.368 1.272 0 0 10.439 43.968 63.271 48.077 0 0-41.777 37.74-101.081 28.885l.019.005z" fill="#fff"></path>
  </symbol>
  <symbol xmlns="http://www.w3.org/2000/svg" viewBox="0 0 455.73 455.73" id="facebook">
    <path d="M0 0v455.73h242.704V279.691h-59.33v-71.864h59.33v-60.353c0-43.893 35.582-79.475 79.475-79.475h62.025v64.622h-44.382c-13.947 0-25.254 11.307-25.254 25.254v49.953h68.521l-9.47 71.864h-59.051V455.73H455.73V0H0z" fill="#3a559f"></path>
  </symbol>
  <symbol xmlns="http://www.w3.org/2000/svg" viewBox="0 0 455.731 455.731" id="vk">
    <path fill="#44678d" d="M0 0h455.731v455.731H0z"></path>
    <path d="M118.06 138.69c10.922 26.972 24.764 52.402 42.995 75.231 2.418 3.038 5.466 5.739 8.677 7.938 4.69 3.221 9.115 2.089 11.022-3.276 2.017-5.63 3.868-17.04 3.978-22.952.301-15.448-.045-25.572-.875-41.001-.538-9.882-4.051-18.559-18.587-21.178-4.489-.812-4.906-4.507-2.022-8.193 6.004-7.674 14.368-8.897 23.438-9.381 14.7-.794 29.454-.146 44.172 0 5.995.055 12.026.538 17.93 1.825 7.701 1.679 11.825 7.081 13.094 14.599.657 3.878.995 7.865.903 11.789-.383 16.862-1.195 33.715-1.387 50.568-.082 6.615.401 13.395 1.816 19.837 1.98 8.978 8.093 11.232 14.344 4.745 7.938-8.239 14.937-17.51 21.506-26.926 11.935-17.127 20.849-35.923 28.523-55.303 3.969-10 7.008-12.172 17.765-12.199 20.22-.046 40.44-.064 60.66 0 3.586.018 7.336.356 10.721 1.433 5.493 1.752 7.674 6.232 6.387 11.917-3.002 13.322-10.201 24.645-17.911 35.531-12.373 17.464-25.339 34.509-38.003 51.772-1.615 2.199-3.038 4.544-4.362 6.925-4.736 8.559-4.407 13.358 2.5 20.484 10.995 11.342 22.766 21.953 33.414 33.605 7.738 8.477 14.9 17.674 21.032 27.355 7.756 12.245 2.965 23.778-11.524 25.831-9.115 1.287-53.641.01-55.942 0-11.971-.054-22.464-4.206-30.914-12.336-9.398-9.051-17.939-18.979-26.963-28.423-2.719-2.847-5.621-5.575-8.75-7.957-7.382-5.63-14.627-4.38-18.076 4.289-2.947 7.446-5.493 26.999-5.612 28.669-.62 8.732-6.177 14.298-15.959 14.836-28.24 1.533-55.605-1.615-81.098-15.274-21.607-11.57-38.861-27.93-53.807-47.009-23.742-30.304-42.495-63.615-59.616-97.904-.875-1.753-18.216-38.653-18.682-40.396-1.549-5.836-.104-11.411 4.827-13.33 3.074-1.196 60.248-.004 61.199.047 9.123.494 15.344 4.343 19.187 13.812z" fill="#fff"></path>
  </symbol>
  <symbol xmlns="http://www.w3.org/2000/svg" viewBox="0 0 512.479 512.479" id="odnoklassniki">
    <g fill="#ff9800">
      <path d="M256.239 277.333c76.583 0 138.667-62.083 138.667-138.667S332.823 0 256.239 0 117.573 62.083 117.573 138.667c.094 76.544 62.122 138.572 138.666 138.666zm0-213.333c41.237 0 74.667 33.429 74.667 74.667s-33.429 74.667-74.667 74.667-74.667-33.429-74.667-74.667S215.002 64 256.239 64z"></path>
      <path d="M392.069 343.04a53.72 53.72 0 0024.171-44.8 38.698 38.698 0 00-21.696-35.307 40.534 40.534 0 00-42.667 4.011c-56.983 41.543-134.27 41.543-191.253 0a40.747 40.747 0 00-42.667-4.011 38.74 38.74 0 00-21.717 35.285 53.78 53.78 0 0024.171 44.8 246.275 246.275 0 0062.507 29.867 212.318 212.318 0 0011.627 3.243l-64.469 63.04c-16.912 16.409-17.321 43.42-.912 60.333 16.409 16.912 43.42 17.321 60.333.912.352-.342.698-.689 1.038-1.043l65.707-68.011 65.835 68.139c16.395 16.925 43.407 17.355 60.332.96 16.925-16.395 17.355-43.407.96-60.332a42.943 42.943 0 00-1.047-1.044l-64.363-62.976a270.92 270.92 0 0011.669-3.264 245.352 245.352 0 0062.441-29.802z"></path>
    </g>
  </symbol>
  <symbol xmlns="http://www.w3.org/2000/svg" viewBox="0 0 455.731 455.731" id="blogger">
    <path fill="#f89029" d="M0 0h455.731v455.731H0z"></path>
    <path d="M349.922 190.236H335.85c-11.015 0-19.944-8.929-19.944-19.944v-1.389c0-46.252-37.495-83.747-83.747-83.747h-62.547c-46.252 0-83.747 37.495-83.747 83.747V286.83c0 46.252 37.495 83.747 83.747 83.747h116.507c46.252 0 83.747-37.495 83.747-83.747v-76.649c0-11.016-8.93-19.945-19.944-19.945zm-176.726-32.66h66.74c9.019 0 16.33 7.311 16.33 16.33s-7.311 16.33-16.33 16.33h-66.74c-9.019 0-16.33-7.311-16.33-16.33s7.311-16.33 16.33-16.33zm110.76 140.58h-110.76c-9.019 0-16.33-7.311-16.33-16.33 0-9.019 7.311-16.33 16.33-16.33h110.76c9.019 0 16.33 7.311 16.33 16.33 0 9.018-7.312 16.33-16.33 16.33z" fill="#fff"></path>
  </symbol>
  <symbol xmlns="http://www.w3.org/2000/svg" viewBox="0 0 455.731 455.731" id="whatsapp">
    <path fill="#1bd741" d="M0 0h455.731v455.731H0z"></path>
    <g fill="#fff">
      <path d="M68.494 387.41l22.323-79.284c-14.355-24.387-21.913-52.134-21.913-80.638 0-87.765 71.402-159.167 159.167-159.167s159.166 71.402 159.166 159.167-71.401 159.167-159.166 159.167c-27.347 0-54.125-7-77.814-20.292L68.494 387.41zm85.943-50.004l4.872 2.975c20.654 12.609 44.432 19.274 68.762 19.274 72.877 0 132.166-59.29 132.166-132.167S300.948 95.321 228.071 95.321 95.904 154.611 95.904 227.488c0 25.393 7.217 50.052 20.869 71.311l3.281 5.109-12.855 45.658 47.238-12.16z"></path>
      <path d="M183.359 153.407l-10.328-.563a12.49 12.49 0 00-8.878 3.037c-5.007 4.348-13.013 12.754-15.472 23.708-3.667 16.333 2 36.333 16.667 56.333 14.667 20 42 52 90.333 65.667 15.575 4.404 27.827 1.435 37.28-4.612 7.487-4.789 12.648-12.476 14.508-21.166l1.649-7.702a5.35 5.35 0 00-2.993-5.98L271.22 246.04a5.352 5.352 0 00-6.477 1.591l-13.703 17.764a3.921 3.921 0 01-4.407 1.312c-9.384-3.298-40.818-16.463-58.066-49.687a3.96 3.96 0 01.499-4.419l13.096-15.15a5.35 5.35 0 00.872-5.602l-15.046-35.201a5.352 5.352 0 00-4.629-3.241z"></path>
    </g>
  </symbol>
  <symbol xmlns="http://www.w3.org/2000/svg" viewBox="0 0 455.731 455.731" id="telegram">
    <path fill="#61a8de" d="M0 0h455.731v455.731H0z"></path>
    <path d="M358.844 100.6L54.091 219.359c-9.871 3.847-9.273 18.012.888 21.012l77.441 22.868 28.901 91.706c3.019 9.579 15.158 12.483 22.185 5.308l40.039-40.882 78.56 57.665c9.614 7.057 23.306 1.814 25.747-9.859l52.031-248.76c2.548-12.185-9.44-22.337-21.039-17.817zm-38.208 55.206L179.08 280.984a7.603 7.603 0 00-2.519 4.847l-5.45 48.448c-.178 1.58-2.389 1.789-2.861.271l-22.423-72.253a7.605 7.605 0 013.255-8.717l167.163-103.676c3.844-2.386 7.78 2.906 4.391 5.902z" fill="#fff"></path>
  </symbol>
  <symbol xmlns="http://www.w3.org/2000/svg" viewBox="0 0 455.731 455.731" id="viber">
    <path fill="#7d3daf" d="M0 0h455.731v455.731H0z"></path>
    <g fill="#fff">
      <path d="M371.996 146.901l-.09-.36c-7.28-29.43-40.1-61.01-70.24-67.58l-.34-.07c-48.75-9.3-98.18-9.3-146.92 0l-.35.07c-30.13 6.57-62.95 38.15-70.24 67.58l-.08.36c-9 41.1-9 82.78 0 123.88l.08.36c6.979 28.174 37.355 58.303 66.37 66.589v32.852c0 11.89 14.49 17.73 22.73 9.15l33.285-34.599c7.219.404 14.442.629 21.665.629 24.54 0 49.09-2.32 73.46-6.97l.34-.07c30.14-6.57 62.96-38.15 70.24-67.58l.09-.36c9-41.101 9-82.781 0-123.881zm-26.34 117.92c-4.86 19.2-29.78 43.07-49.58 47.48-25.921 4.929-52.047 7.036-78.147 6.313a1.851 1.851 0 00-1.38.559l-24.303 24.948-25.85 26.53c-1.89 1.97-5.21.63-5.21-2.09v-54.422c0-.899-.642-1.663-1.525-1.836l-.015-.003c-19.8-4.41-44.71-28.28-49.58-47.48-8.1-37.15-8.1-74.81 0-111.96 4.87-19.2 29.78-43.07 49.58-47.48 45.27-8.61 91.17-8.61 136.43 0 19.81 4.41 44.72 28.28 49.58 47.48 8.109 37.151 8.109 74.811 0 111.961z"></path>
      <path d="M270.937 289.942c-3.044-.924-5.945-1.545-8.639-2.663-27.916-11.582-53.608-26.524-73.959-49.429-11.573-13.025-20.631-27.73-28.288-43.292-3.631-7.38-6.691-15.049-9.81-22.668-2.844-6.948 1.345-14.126 5.756-19.361 4.139-4.913 9.465-8.673 15.233-11.444 4.502-2.163 8.943-.916 12.231 2.9 7.108 8.25 13.637 16.922 18.924 26.485 3.251 5.882 2.359 13.072-3.533 17.075-1.432.973-2.737 2.115-4.071 3.214-1.17.963-2.271 1.936-3.073 3.24-1.466 2.386-1.536 5.2-.592 7.794 7.266 19.968 19.513 35.495 39.611 43.858 3.216 1.338 6.446 2.896 10.151 2.464 6.205-.725 8.214-7.531 12.562-11.087 4.25-3.475 9.681-3.521 14.259-.624 4.579 2.898 9.018 6.009 13.43 9.153 4.331 3.086 8.643 6.105 12.638 9.623 3.841 3.383 5.164 7.821 3.001 12.412-3.96 8.408-9.722 15.403-18.034 19.868-2.347 1.259-5.15 1.667-7.797 2.482-3.044-.925 2.647-.815 0 0zm-42.995-158.471c36.515 1.023 66.506 25.256 72.933 61.356 1.095 6.151 1.485 12.44 1.972 18.683.205 2.626-1.282 5.121-4.116 5.155-2.927.035-4.244-2.414-4.434-5.039-.376-5.196-.637-10.415-1.353-15.568-3.78-27.201-25.47-49.705-52.545-54.534-4.074-.727-8.244-.918-12.371-1.351-2.609-.274-6.026-.432-6.604-3.675-.485-2.719 1.81-4.884 4.399-5.023.704-.039 1.412-.007 2.119-.004 36.515 1.023-.707-.003 0 0z"></path>
      <path d="M283.434 203.407c-.06.456-.092 1.528-.359 2.538-.969 3.666-6.527 4.125-7.807.425-.379-1.098-.436-2.347-.438-3.529-.013-7.734-1.694-15.46-5.594-22.189-4.009-6.916-10.134-12.73-17.318-16.248-4.344-2.127-9.042-3.449-13.803-4.237-2.081-.344-4.184-.553-6.275-.844-2.534-.352-3.887-1.967-3.767-4.464.112-2.34 1.822-4.023 4.372-3.879 8.38.476 16.474 2.287 23.924 6.232 15.15 8.023 23.804 20.687 26.33 37.597.114.766.298 1.525.356 2.294.143 1.899.233 3.8.379 6.304-.06.456-.146-2.504 0 0z"></path>
      <path d="M260.722 202.523c-3.055.055-4.69-1.636-5.005-4.437-.219-1.953-.392-3.932-.858-5.832-.918-3.742-2.907-7.21-6.055-9.503-1.486-1.083-3.17-1.872-4.934-2.381-2.241-.647-4.568-.469-6.804-1.017-2.428-.595-3.771-2.561-3.389-4.839.347-2.073 2.364-3.691 4.629-3.527 14.157 1.022 24.275 8.341 25.719 25.007.102 1.176.222 2.419-.039 3.544-.447 1.926-1.873 2.891-3.264 2.985-3.055.055 1.391-.094 0 0z"></path>
    </g>
  </symbol>
</svg>